<svg xmlns="http://www.w3.org/2000/svg" viewBox="0 0 141 137"><path d="M87.55 137.07a17.35 17.35 0 0 0 17.55-17.14V85.64a17.35 17.35 0 0 1-17.55 17.14 17.15 17.15 0 1 0 0 34.28z" fill="#fff" fill-opacity=".24"/><path d="M52.45 102.78A17.35 17.35 0 0 0 70 85.64v34.28a17.35 17.35 0 0 0-17.55-17.14z" fill="#fff" fill-opacity=".24"/><path d="M34.9 85.64a17.35 17.35 0 0 0 17.55 17.14h-35.1A17.35 17.35 0 0 0 34.9 85.64z" fill="#fff" fill-opacity=".3"/><path d="M122.65 68.5a17.35 17.35 0 0 0-17.55 17.14v34.28a17.35 17.35 0 0 1 17.55-17.14 17.15 17.15 0 1 0 0-34.28z" fill="#fff" fill-opacity=".42"/><path d="M87.55 68.5A17.35 17.35 0 0 0 70 85.64v34.28a17.35 17.35 0 0 1 17.55-17.14 17.35 17.35 0 0 0 17.55-17.14V51.36A17.35 17.35 0 0 1 87.55 68.5z" fill="#fff" fill-opacity=".45"/><path d="M52.45 102.78A17.35 17.35 0 0 0 70 85.64V51.36A17.35 17.35 0 0 1 52.45 68.5a17.15 17.15 0 1 0 0 34.28z" fill="#fff" fill-opacity=".5"/><path d="M17.35 102.78A17.35 17.35 0 0 0 34.9 85.64V51.36A17.35 17.35 0 0 1 17.35 68.5a17.15 17.15 0 1 0 0 34.28z" fill="#fff" fill-opacity=".55"/><path d="M40 39.2l-6.25 6.11-22.59 22.07-6.25 6.11a17.71 17.71 0 0 1 12.41-5 17.35 17.35 0 0 0 17.55-17.16A16.89 16.89 0 0 1 40 39.2z" fill="#fff" fill-opacity=".65"/><path d="M122.65 68.5a17.35 17.35 0 0 1-17.55-17.14v34.28a17.35 17.35 0 0 1 17.55-17.14z" fill="#fff" fill-opacity=".7"/><path d="M52.45 34.22A17.35 17.35 0 0 0 34.9 51.36v34.28A17.35 17.35 0 0 1 52.45 68.5 17.35 17.35 0 0 0 70 51.36V17.07a17.35 17.35 0 0 1-17.55 17.15z" fill="#fff" fill-opacity=".8"/><path d="M87.55 34.22A17.35 17.35 0 0 0 70 51.36v34.28A17.35 17.35 0 0 1 87.55 68.5a17.35 17.35 0 0 0 17.55-17.14V17.07a17.35 17.35 0 0 1-17.55 17.15z" fill="#fff" fill-opacity=".85"/><path d="M75.11 4.92L68.85 11 46.26 33.1 40 39.2a17.71 17.71 0 0 1 12.41-5A17.35 17.35 0 0 0 70 17a16.89 16.89 0 0 1 5.11-12.08z" fill="#fff" fill-opacity=".9"/><path d="M87.55-.07A17.35 17.35 0 0 0 70 17.07v34.29a17.35 17.35 0 0 1 17.55-17.14 17.35 17.35 0 0 0 17.55-17.15A17.35 17.35 0 0 0 87.55-.07z" fill="#fff" fill-opacity=".92"/></svg>