<svg
    xmlns="http://www.w3.org/2000/svg" viewBox="0 0 32 32">
    <style>
        path {
            fill: #CA2C92;
        }
        @media (prefers-color-scheme: dark) {
            path {
                fill: #ff99cc;
            }
        }
    </style>
    <path d="M29.1929 3.26497C25.5639 -0.33103 19.7609 -0.406029 16.0019 2.97697C12.2419 -0.406029 6.4409 -0.33103 2.8099 3.26497C-0.9311 6.96897 -0.9311 12.974 2.8099 16.68C3.8789 17.739 13.8629 27.621 13.8629 27.621C15.0459 28.793 16.9589 28.793 18.1409 27.621C18.1409 27.621 29.0729 16.799 29.1939 16.68C32.9359 12.974 32.9359 6.96897 29.1929 3.26497ZM9.2529 5.50097C9.5299 5.50097 9.7529 5.72497 9.7529 6.00097C9.7529 6.27697 9.5289 6.50097 9.2529 6.50097H9.2519C7.4579 6.50097 6.0029 7.95597 6.0029 9.74997V9.75097C6.0029 10.027 5.7789 10.251 5.5029 10.251C5.2269 10.251 5.0029 10.027 5.0029 9.75097C5.0029 7.40497 6.9039 5.50397 9.2489 5.50197C9.2509 5.50197 9.2509 5.50097 9.2529 5.50097Z" fill="black"/>
</svg>
